<svg width="100" height="92" viewBox="0 0 100 92" fill="none" xmlns="http://www.w3.org/2000/svg">
<path d="M29.3847 59.5578H14.9039L12.9808 57.5002L7.69238 59.5002V52.8848H16.3539C18.2308 52.8848 20.0654 53.4348 21.6347 54.4655L29.3847 59.5578Z" fill="white"/>
<path d="M53.2404 35.8347C57.5654 35.0482 63.2442 34.6155 69.2308 34.6155C73.3385 34.6155 77.2885 34.8232 80.7692 35.2059V11.5385C80.7692 9.42315 79.0385 7.69238 76.9231 7.69238H11.5385C9.42315 7.69238 7.69238 9.42315 7.69238 11.5385V44.2309H42.3077C42.3077 37.8232 50.25 36.3789 53.2404 35.8347Z" fill="white"/>
<path d="M69.2307 63.4617C62.2923 63.4617 46.1538 62.9001 46.1538 57.6924V44.2309C46.1538 39.0232 62.2923 38.4617 69.2307 38.4617C76.1692 38.4617 92.3076 39.0232 92.3076 44.2309V57.6924C92.3076 62.9001 76.1692 63.4617 69.2307 63.4617ZM50 57.1905C51.498 58.1213 58.0461 59.6155 69.2307 59.6155C80.4153 59.6155 86.9634 58.1213 88.4614 57.1905V44.7309C86.9634 43.8021 80.4153 42.3078 69.2307 42.3078C58.0461 42.3078 51.498 43.8021 50 44.7328V57.1905Z" fill="white"/>
<path d="M76.9228 53.8462H73.0767V62.4212H76.9228V53.8462Z" fill="white"/>
<path d="M84.6152 60.4981L80.769 62.4212V53.8462H84.6152V60.4981Z" fill="white"/>
<path d="M69.2307 50.0003C62.2923 50.0003 46.1538 49.4387 46.1538 44.231H50C50 43.8637 49.8365 43.6214 49.7788 43.5637C50.698 44.4676 57.348 46.1541 69.2307 46.1541C81.1134 46.1541 87.7634 44.4676 88.6826 43.5637C88.6249 43.6214 88.4614 43.8637 88.4614 44.231H92.3076C92.3076 49.4387 76.1692 50.0003 69.2307 50.0003Z" fill="white"/>
<path d="M69.2305 84.6154C80.9134 84.6154 90.3843 82.4629 90.3843 79.8077C90.3843 77.1525 80.9134 75 69.2305 75C57.5475 75 48.0767 77.1525 48.0767 79.8077C48.0767 82.4629 57.5475 84.6154 69.2305 84.6154Z" fill="white"/>
<path d="M42.3075 51.7654V50.0038C41.1998 49.0404 39.9036 48.0769 39.9036 48.0769H33.1729L33.4286 50.1096C33.5536 51.1058 34.419 51.8365 35.4209 51.7904C37.3498 51.6981 40.3998 51.6019 42.3075 51.7654Z" fill="white"/>
<path d="M40.8789 61.8865L39.8827 62.2134C36.3943 63.3596 32.7462 63.9422 29.0731 63.9422H26.2116C21.6039 63.9422 17.0424 64.8615 12.7943 66.6461L7.69238 68.7884V70.1922H8.56931C12.4443 70.1922 16.2924 69.5422 19.952 68.2692C23.6116 66.9961 27.4597 66.3461 31.3347 66.3461H39.6039L40.8789 61.8865Z" fill="white"/>
<path d="M36.5732 76.9577L34.7693 75.1538C33.4385 73.8231 31.6347 73.0769 29.7539 73.0769H21.8097C19.0616 73.0769 16.5597 74.6654 15.3905 77.1519L9.16357 78.125L13.6924 80.7692H35.4828L36.5732 76.9577Z" fill="white"/>
<path d="M34.6153 84.6154H9.61537C6.43461 84.6154 3.84615 82.027 3.84615 78.8462V9.61539C3.84615 6.43462 6.43461 3.84616 9.61537 3.84616H78.8461C82.0268 3.84616 84.6153 6.43462 84.6153 9.61539V35.7346C84.8153 35.7692 85.0268 35.8 85.2211 35.8346C86.0249 35.9808 87.1922 36.1981 88.4614 36.5539V9.61539C88.4614 4.31346 84.148 0 78.8461 0H9.61537C4.31346 0 0 4.31346 0 9.61539V78.8462C0 84.1481 4.31346 88.4616 9.61537 88.4616H35.773C35.0615 87.3923 34.6153 86.1327 34.6153 84.6154Z" fill="white"/>
<path d="M99.7133 83.3385L91.8344 55.7693H88.4614V59.6154H88.9344L96.0287 84.452C94.2921 85.8212 85.1941 88.1501 69.2287 88.1501C53.2633 88.1501 44.1672 85.8212 42.4287 84.452L49.5268 59.6154H49.9999V55.7693H46.6268L38.748 83.3385C38.5595 83.7539 38.4614 84.1808 38.4614 84.6155C38.4614 91.6405 64.0922 91.9962 69.2306 91.9962C74.3691 91.9962 99.9998 91.6405 99.9998 84.6155C99.9998 84.1808 99.9017 83.7539 99.7133 83.3385Z" fill="white"/>
</svg>
