<svg width="640" height="64" viewBox="0 0 640 64" fill="none" xmlns="http://www.w3.org/2000/svg">
<g clip-path="url(#clip0_374_7468)">
<path d="M52 0H12C5.37258 0 0 5.37258 0 12V52C0 58.6274 5.37258 64 12 64H52C58.6274 64 64 58.6274 64 52V12C64 5.37258 58.6274 0 52 0Z" fill="#583EF5"/>
<path d="M24.5 47.9999V40L20.629 44.9522L16.5 40V48" stroke="white" stroke-width="3" stroke-linecap="round" stroke-linejoin="round"/>
<path d="M29.5 48V40H31C32.0001 40 35.5 40.0001 35.5 44C35.5 47.9999 32.0003 48 31.0001 48H29.5Z" stroke="white" stroke-width="3" stroke-linecap="round" stroke-linejoin="round"/>
<path d="M15.0001 33.4616C15.0001 34.29 15.6716 34.9616 16.5001 34.9616C17.3285 34.9616 18.0001 34.29 18.0001 33.4616H15.0001ZM40.6667 46.5001C39.8384 46.5001 39.1667 47.1716 39.1667 48.0001C39.1667 48.8285 39.8384 49.5001 40.6667 49.5001V46.5001ZM47.0001 39.1112C47.0001 39.9396 47.6716 40.6112 48.5001 40.6112C49.3285 40.6112 50.0001 39.9396 50.0001 39.1112H47.0001ZM25.8334 17.5001H27.5477V14.5001H25.8334V17.5001ZM47.0001 36.9524V38.6667H50.0001V36.9524H47.0001ZM18.0001 33.4616V25.3334H15.0001V33.4616H18.0001ZM40.881 30.8334C41.373 30.8334 41.557 30.834 41.7036 30.8422L41.8718 27.8469C41.6199 27.8328 41.3323 27.8334 40.881 27.8334V30.8334ZM50.0001 36.9524C50.0001 36.5012 50.0006 36.2136 49.9865 35.9617L46.9913 36.1299C46.9995 36.2765 47.0001 36.4604 47.0001 36.9524H50.0001ZM41.7036 30.8422C44.5549 31.0024 46.8312 33.2786 46.9913 36.1299L49.9865 35.9617C49.7407 31.5859 46.2476 28.0926 41.8718 27.8469L41.7036 30.8422ZM27.5477 17.5001C28.0397 17.5001 28.2236 17.5006 28.3702 17.5089L28.5385 14.5137C28.2866 14.4995 27.9989 14.5001 27.5477 14.5001V17.5001ZM36.6667 23.6192C36.6667 23.1678 36.6674 22.8802 36.6532 22.6284L33.6579 22.7965C33.6661 22.9432 33.6667 23.1272 33.6667 23.6192H36.6667ZM28.3702 17.5089C31.2216 17.669 33.4978 19.9452 33.6579 22.7965L36.6532 22.6284C36.4075 18.2526 32.9142 14.7594 28.5385 14.5137L28.3702 17.5089ZM47.0001 38.6667C47.0001 40.8233 46.9888 41.6262 46.832 42.2523L49.742 42.9813C50.0114 41.9058 50.0001 40.6426 50.0001 38.6667H47.0001ZM40.6667 49.5001C41.6409 49.5001 42.1564 49.5026 42.5078 49.4649C42.7394 49.44 42.9099 49.399 43.0661 49.3557C43.2116 49.3154 43.292 49.2894 43.4813 49.242L42.7523 46.332C42.5163 46.391 42.336 46.445 42.2651 46.4646C42.2051 46.4812 42.2036 46.4803 42.1873 46.482C42.0429 46.4976 41.7588 46.5001 40.6667 46.5001V49.5001ZM46.832 42.2523C46.3289 44.2608 44.7607 45.8289 42.7523 46.332L43.4813 49.242C46.5634 48.47 48.97 46.0634 49.742 42.9813L46.832 42.2523ZM33.6667 23.6192C33.6667 23.9525 33.6661 24.1812 33.6774 24.3833L36.6728 24.215C36.6674 24.1182 36.6667 23.9932 36.6667 23.6192H33.6667ZM40.881 27.8334C40.5069 27.8334 40.3819 27.8328 40.2851 27.8274L40.1169 30.8227C40.3189 30.834 40.5476 30.8334 40.881 30.8334V27.8334ZM33.6774 24.3833C33.8725 27.8556 36.6445 30.6276 40.1169 30.8227L40.2851 27.8274C38.3372 27.718 36.7821 26.1629 36.6728 24.215L33.6774 24.3833ZM25.8334 14.5001C23.8576 14.5001 22.5944 14.4888 21.5188 14.7581L22.2478 17.6682C22.8739 17.5114 23.6769 17.5001 25.8334 17.5001V14.5001ZM18.0001 25.3334C18.0001 23.1769 18.0114 22.3739 18.1682 21.7478L15.2581 21.0188C14.9888 22.0944 15.0001 23.3576 15.0001 25.3334H18.0001ZM21.5188 14.7581C18.4368 15.5301 16.0301 17.9368 15.2581 21.0188L18.1682 21.7478C18.6713 19.7394 20.2394 18.1713 22.2478 17.6682L21.5188 14.7581ZM25.8334 17.5001H30.7222V14.5001H25.8334V17.5001ZM47.0001 33.7779V39.1112H50.0001V33.7779H47.0001ZM30.7222 17.5001C39.7123 17.5001 47.0001 24.7878 47.0001 33.7779H50.0001C50.0001 23.131 41.3691 14.5001 30.7222 14.5001V17.5001Z" fill="white"/>
</g>
<path d="M117.807 44.1644C117.807 45.081 117.564 45.7827 117.077 46.2696C116.59 46.7565 115.888 47 114.972 47H114.886C113.969 47 113.268 46.7565 112.781 46.2696C112.294 45.7827 112.05 45.081 112.05 44.1644V27.7526L103.458 45.2385C103.171 45.84 102.799 46.284 102.341 46.5704C101.882 46.8568 101.31 47 100.622 47H100.45C99.763 47 99.1901 46.8568 98.7319 46.5704C98.2736 46.284 97.9012 45.84 97.6148 45.2385L89.0222 27.7526V44.1644C89.0222 45.081 88.7788 45.7827 88.2919 46.2696C87.8049 46.7565 87.1032 47 86.1867 47H86.1007C85.1842 47 84.4825 46.7565 83.9956 46.2696C83.5086 45.7827 83.2652 45.081 83.2652 44.1644V18C83.2652 17.0835 83.4943 16.3817 83.9526 15.8948C84.4109 15.4079 85.0696 15.1644 85.9289 15.1644H86.2726C87.8479 15.1644 88.9649 15.8518 89.6237 17.2267L100.536 39.4385L111.449 17.2267C112.108 15.8518 113.225 15.1644 114.8 15.1644H114.972C115.888 15.1644 116.59 15.4079 117.077 15.8948C117.564 16.3817 117.807 17.0835 117.807 18V44.1644ZM146.509 44.2504C146.509 45.1383 146.266 45.8257 145.779 46.3126C145.32 46.7709 144.647 47 143.759 47H143.631C142.743 47 142.055 46.7709 141.568 46.3126C141.11 45.8257 140.881 45.1383 140.881 44.2504V39.6533L142.084 35.7867L140.881 31.7052V26.9793C140.881 26.0914 141.11 25.4183 141.568 24.96C142.055 24.4731 142.743 24.2296 143.631 24.2296H143.759C144.647 24.2296 145.32 24.4731 145.779 24.96C146.266 25.4183 146.509 26.0914 146.509 26.9793V44.2504ZM134.694 42.5319C136.04 42.5319 137.215 42.2454 138.217 41.6726C139.22 41.0998 139.993 40.2978 140.537 39.2667C141.081 38.2069 141.353 36.9896 141.353 35.6148C141.353 34.24 141.081 33.0227 140.537 31.963C139.993 30.9032 139.22 30.0869 138.217 29.5141C137.215 28.9412 136.04 28.6548 134.694 28.6548C133.634 28.6548 132.646 28.9556 131.73 29.557C130.842 30.1299 130.14 30.9462 129.625 32.0059C129.109 33.0657 128.851 34.2686 128.851 35.6148C128.851 36.961 129.109 38.1639 129.625 39.2237C130.14 40.2548 130.842 41.0711 131.73 41.6726C132.618 42.2454 133.606 42.5319 134.694 42.5319ZM134.265 47.4726C132.116 47.4726 130.183 46.9427 128.465 45.883C126.746 44.8232 125.4 43.3911 124.426 41.5867C123.452 39.7536 122.965 37.763 122.965 35.6148C122.965 33.4667 123.452 31.4904 124.426 29.6859C125.4 27.8528 126.746 26.4064 128.465 25.3467C130.183 24.2869 132.116 23.757 134.265 23.757C136.384 23.757 138.189 24.3728 139.678 25.6044C141.196 26.8074 142.327 28.3254 143.072 30.1585C143.817 31.9916 144.189 33.8104 144.189 35.6148C144.189 37.4193 143.817 39.238 143.072 41.0711C142.327 42.9042 141.196 44.4365 139.678 45.6681C138.189 46.8711 136.384 47.4726 134.265 47.4726ZM157.179 44.2933C157.179 45.1812 156.949 45.8543 156.491 46.3126C156.033 46.7709 155.36 47 154.472 47H154.386C153.498 47 152.825 46.7709 152.367 46.3126C151.908 45.8543 151.679 45.1812 151.679 44.2933V26.9363C151.679 26.0484 151.908 25.3753 152.367 24.917C152.825 24.4588 153.498 24.2296 154.386 24.2296H154.472C155.36 24.2296 156.033 24.4588 156.491 24.917C156.949 25.3753 157.179 26.0484 157.179 26.9363V44.2933ZM151.679 39.9541C151.679 37.4049 152.066 35.0277 152.839 32.8222C153.641 30.5881 154.773 28.7121 156.233 27.1941C157.723 25.6474 159.441 24.6163 161.389 24.1007C162.248 23.9002 162.936 24.0291 163.451 24.4874C163.967 24.917 164.225 25.5615 164.225 26.4207V26.5067C164.225 27.3373 164.024 27.9817 163.623 28.44C163.222 28.8696 162.606 29.156 161.776 29.2993C160.716 29.4998 159.842 29.8578 159.155 30.3733C158.496 30.8889 157.995 31.6193 157.651 32.5644C157.336 33.481 157.179 34.6553 157.179 36.0874L151.679 39.9541ZM169.249 34.197L178.658 25.6474C179.202 25.1318 179.746 24.7738 180.291 24.5733C180.864 24.3442 181.522 24.2296 182.267 24.2296H182.697C183.556 24.2296 184.215 24.4015 184.673 24.7452C185.131 25.0889 185.303 25.5472 185.188 26.12C185.074 26.6928 184.687 27.2657 184.028 27.8385L172.6 37.8059L169.249 34.197ZM186.048 43.3911C186.678 43.964 187.022 44.5368 187.079 45.1096C187.136 45.6538 186.95 46.1121 186.52 46.4844C186.119 46.8281 185.589 47 184.931 47H184.329C183.613 47 182.969 46.8998 182.396 46.6993C181.852 46.4701 181.293 46.1121 180.72 45.6252L169.722 36.0015L173.073 31.963L186.048 43.3911ZM173.374 44.2933C173.374 45.1812 173.144 45.8543 172.686 46.3126C172.228 46.7709 171.555 47 170.667 47H170.581C169.693 47 169.02 46.7709 168.562 46.3126C168.104 45.8543 167.874 45.1812 167.874 44.2933V17.1407C167.874 16.2528 168.104 15.5797 168.562 15.1215C169.02 14.6632 169.693 14.4341 170.581 14.4341H170.667C171.555 14.4341 172.228 14.6632 172.686 15.1215C173.144 15.5797 173.374 16.2528 173.374 17.1407V44.2933ZM200.02 42.5319C201.366 42.5319 202.54 42.2454 203.543 41.6726C204.545 41.0998 205.319 40.2978 205.863 39.2667C206.407 38.2069 206.679 36.9896 206.679 35.6148C206.679 34.24 206.407 33.0227 205.863 31.963C205.319 30.9032 204.545 30.0869 203.543 29.5141C202.54 28.9412 201.366 28.6548 200.02 28.6548C198.96 28.6548 197.972 28.9556 197.055 29.557C196.167 30.1299 195.466 30.9462 194.95 32.0059C194.435 33.0657 194.177 34.2686 194.177 35.6148C194.177 36.961 194.435 38.1639 194.95 39.2237C195.466 40.2548 196.167 41.0711 197.055 41.6726C197.943 42.2454 198.931 42.5319 200.02 42.5319ZM199.59 47.4726C197.442 47.4726 195.509 46.9427 193.79 45.883C192.072 44.8232 190.725 43.3911 189.752 41.5867C188.778 39.7536 188.291 37.763 188.291 35.6148C188.291 33.4667 188.778 31.4904 189.752 29.6859C190.725 27.8528 192.072 26.4064 193.79 25.3467C195.509 24.2869 197.442 23.757 199.59 23.757C201.71 23.757 203.514 24.3728 205.003 25.6044C206.521 26.8074 207.653 28.3254 208.398 30.1585C209.142 31.9916 209.515 33.8104 209.515 35.6148C209.515 37.4193 209.142 39.238 208.398 41.0711C207.653 42.9042 206.521 44.4365 205.003 45.6681C203.514 46.8711 201.71 47.4726 199.59 47.4726ZM211.706 44.2933C211.706 45.1526 211.477 45.8257 211.018 46.3126C210.56 46.7709 209.887 47 208.999 47H208.913C208.054 47 207.381 46.7709 206.894 46.3126C206.436 45.8257 206.206 45.1526 206.206 44.2933V39.6533L207.409 35.7867L206.206 31.7052V17.1407C206.206 16.2528 206.436 15.5797 206.894 15.1215C207.381 14.6632 208.054 14.4341 208.913 14.4341H208.999C209.887 14.4341 210.56 14.6632 211.018 15.1215C211.477 15.5797 211.706 16.2528 211.706 17.1407V44.2933ZM228.049 42.403C229.31 42.403 230.412 42.1165 231.358 41.5437C232.303 40.9709 233.019 40.1689 233.506 39.1378C234.021 38.1067 234.279 36.9323 234.279 35.6148C234.279 34.2686 234.021 33.0943 233.506 32.0919C233.019 31.0607 232.303 30.2588 231.358 29.6859C230.412 29.1131 229.31 28.8267 228.049 28.8267C226.789 28.8267 225.686 29.1131 224.741 29.6859C223.796 30.2588 223.066 31.0607 222.55 32.0919C222.063 33.0943 221.82 34.2686 221.82 35.6148C221.82 36.9323 222.078 38.1067 222.593 39.1378C223.109 40.1689 223.825 40.9709 224.741 41.5437C225.686 42.1165 226.789 42.403 228.049 42.403ZM228.049 47.4726C225.901 47.4726 223.911 46.9427 222.078 45.883C220.273 44.7946 218.841 43.3481 217.781 41.5437C216.721 39.7106 216.192 37.7343 216.192 35.6148C216.192 33.4667 216.721 31.4904 217.781 29.6859C218.87 27.8528 220.316 26.4064 222.12 25.3467C223.954 24.2869 225.93 23.757 228.049 23.757C230.198 23.757 232.174 24.2869 233.978 25.3467C235.811 26.4064 237.258 27.8528 238.318 29.6859C239.377 31.4904 239.907 33.4667 239.907 35.6148C239.907 37.7343 239.377 39.7106 238.318 41.5437C237.258 43.3481 235.811 44.7946 233.978 45.883C232.174 46.9427 230.198 47.4726 228.049 47.4726ZM270.201 26.4207C270.488 25.676 270.86 25.1318 271.318 24.7881C271.805 24.4158 272.435 24.2296 273.208 24.2296H273.294C274.268 24.2296 274.984 24.5304 275.443 25.1318C275.901 25.7333 275.958 26.4923 275.614 27.4089L268.697 45.0237C268.21 46.3412 267.237 47 265.776 47H265.647C264.902 47 264.301 46.8281 263.843 46.4844C263.384 46.1407 263.041 45.6109 262.811 44.8948L258.945 32.5215L255.078 44.8948C254.849 45.6109 254.505 46.1407 254.047 46.4844C253.589 46.8281 252.987 47 252.243 47H252.114C250.653 47 249.679 46.3412 249.192 45.0237L242.275 27.4089C241.931 26.4923 241.989 25.7333 242.447 25.1318C242.905 24.5304 243.621 24.2296 244.595 24.2296H244.681C245.454 24.2296 246.07 24.4158 246.528 24.7881C247.015 25.1318 247.402 25.676 247.688 26.4207L252.328 38.7941L256.582 25.8622C256.954 24.7738 257.727 24.2296 258.902 24.2296H258.988C260.162 24.2296 260.935 24.7738 261.308 25.8622L265.561 38.7941L270.201 26.4207ZM285.019 44.2933C285.019 45.1812 284.789 45.8543 284.331 46.3126C283.873 46.7709 283.2 47 282.312 47H282.226C281.367 47 280.694 46.7709 280.207 46.3126C279.748 45.8543 279.519 45.1812 279.519 44.2933V26.9363C279.519 26.0484 279.748 25.3753 280.207 24.917C280.694 24.4588 281.367 24.2296 282.226 24.2296H282.312C283.2 24.2296 283.873 24.4588 284.331 24.917C284.789 25.3753 285.019 26.0484 285.019 26.9363V44.2933ZM279.519 39.9541C279.519 37.0899 280.049 34.4119 281.109 31.92C282.169 29.4281 283.629 27.4518 285.491 25.9911C287.353 24.5017 289.429 23.757 291.721 23.757C293.182 23.757 294.542 24.1723 295.802 25.003C297.091 25.8336 298.122 27.0509 298.896 28.6548C299.698 30.2301 300.099 32.0775 300.099 34.197V44.2933C300.099 45.1812 299.869 45.8543 299.411 46.3126C298.953 46.7709 298.28 47 297.392 47H297.306C296.447 47 295.774 46.7709 295.287 46.3126C294.828 45.8543 294.599 45.1812 294.599 44.2933V34.197C294.599 33.0227 294.385 32.0632 293.955 31.3185C293.525 30.5452 292.981 29.9867 292.322 29.643C291.664 29.2706 290.976 29.0844 290.26 29.0844C289.229 29.0844 288.327 29.2993 287.553 29.7289C286.78 30.1585 286.164 30.8889 285.706 31.92C285.248 32.9511 285.019 34.3402 285.019 36.0874L279.519 39.9541ZM326.284 44.1644C326.284 45.081 326.04 45.7827 325.553 46.2696C325.066 46.7565 324.365 47 323.448 47H323.362C322.446 47 321.744 46.7565 321.257 46.2696C320.77 45.7827 320.526 45.081 320.526 44.1644V19.7615C320.526 18.2721 320.913 17.1407 321.686 16.3674C322.488 15.5654 323.634 15.1644 325.124 15.1644H326.284V44.1644ZM325.295 28.9985H331.181C332.155 28.9985 332.986 28.8123 333.673 28.44C334.361 28.0677 334.876 27.5664 335.22 26.9363C335.564 26.3062 335.735 25.6044 335.735 24.8311C335.735 24.0578 335.564 23.3704 335.22 22.7689C334.876 22.1388 334.361 21.6518 333.673 21.3081C332.986 20.9358 332.155 20.7496 331.181 20.7496H325.295V15.1644H331.181C333.129 15.1644 334.89 15.637 336.466 16.5822C338.041 17.4988 339.273 18.7017 340.161 20.1911C341.048 21.6805 341.492 23.2272 341.492 24.8311C341.492 26.4064 341.048 27.9531 340.161 29.4711C339.273 30.9605 338.041 32.1921 336.466 33.1659C334.89 34.1111 333.129 34.5837 331.181 34.5837H325.295V28.9985ZM334.446 31.6193L341.192 43.3911C341.765 44.4222 341.85 45.2815 341.449 45.9689C341.077 46.6563 340.332 47 339.215 47H339.086C338.227 47 337.483 46.7852 336.852 46.3556C336.251 45.8973 335.707 45.1956 335.22 44.2504L328.689 31.6193H334.446ZM368.609 32.9511C368.867 34.2114 368.638 35.2138 367.922 35.9585C367.234 36.6746 366.232 37.0326 364.914 37.0326H363.926C363.926 35.0849 363.654 33.4953 363.11 32.2637C362.594 31.0035 361.864 30.1012 360.919 29.557C360.002 28.9842 358.914 28.6978 357.654 28.6978C356.193 28.6978 354.961 28.9699 353.959 29.5141C352.985 30.0296 352.24 30.803 351.725 31.8341C351.209 32.8652 350.951 34.1111 350.951 35.5719C350.951 37.0899 351.209 38.3644 351.725 39.3956C352.24 40.4267 353.028 41.2143 354.088 41.7585C355.147 42.2741 356.479 42.5319 358.083 42.5319C358.828 42.5319 359.544 42.403 360.231 42.1452C360.919 41.8588 361.549 41.4578 362.122 40.9422C362.78 40.398 363.382 40.083 363.926 39.997C364.499 39.9111 365.1 40.083 365.731 40.5126L365.859 40.5985C366.604 41.1141 367.019 41.7012 367.105 42.36C367.191 42.9901 366.919 43.6059 366.289 44.2074C365.115 45.2385 363.812 46.0405 362.379 46.6133C360.976 47.1862 359.544 47.4726 358.083 47.4726C355.591 47.4726 353.415 46.957 351.553 45.9259C349.691 44.8948 348.245 43.477 347.214 41.6726C346.211 39.8681 345.71 37.8346 345.71 35.5719C345.71 33.3091 346.211 31.2899 347.214 29.5141C348.245 27.7096 349.662 26.3062 351.467 25.3037C353.3 24.2726 355.362 23.757 357.654 23.757C359.372 23.757 360.976 24.1007 362.465 24.7881C363.983 25.4756 365.287 26.5067 366.375 27.8815C367.463 29.2563 368.208 30.9462 368.609 32.9511ZM364.571 37.0326H349.276V32.5644H364.571V37.0326ZM384.851 28.6978C383.505 28.6978 382.331 28.9842 381.328 29.557C380.326 30.1299 379.552 30.9462 379.008 32.0059C378.464 33.037 378.192 34.24 378.192 35.6148C378.192 36.9896 378.464 38.2069 379.008 39.2667C379.552 40.3264 380.326 41.1427 381.328 41.7156C382.331 42.2884 383.505 42.5748 384.851 42.5748C385.911 42.5748 386.885 42.2884 387.773 41.7156C388.689 41.1141 389.405 40.2835 389.921 39.2237C390.436 38.1639 390.694 36.961 390.694 35.6148C390.694 34.2686 390.436 33.08 389.921 32.0489C389.405 30.9891 388.703 30.1728 387.816 29.6C386.928 28.9985 385.94 28.6978 384.851 28.6978ZM385.281 23.757C387.429 23.757 389.362 24.2869 391.081 25.3467C392.799 26.4064 394.145 27.8528 395.119 29.6859C396.093 31.4904 396.58 33.4667 396.58 35.6148C396.58 37.763 396.093 39.7536 395.119 41.5867C394.145 43.3911 392.799 44.8232 391.081 45.883C389.362 46.9427 387.429 47.4726 385.281 47.4726C383.161 47.4726 381.342 46.8711 379.824 45.6681C378.335 44.4365 377.218 42.9042 376.473 41.0711C375.729 39.238 375.356 37.4193 375.356 35.6148C375.356 33.8104 375.729 31.9916 376.473 30.1585C377.218 28.3254 378.335 26.8074 379.824 25.6044C381.342 24.3728 383.161 23.757 385.281 23.757ZM378.664 54.0889C378.664 54.9481 378.435 55.6069 377.977 56.0652C377.519 56.5521 376.846 56.7956 375.958 56.7956H375.872C375.013 56.7956 374.34 56.5521 373.853 56.0652C373.394 55.6069 373.165 54.9481 373.165 54.0889V26.9363C373.165 26.0484 373.394 25.3753 373.853 24.917C374.34 24.4588 375.013 24.2296 375.872 24.2296H375.958C376.846 24.2296 377.519 24.4588 377.977 24.917C378.435 25.3753 378.664 26.0484 378.664 26.9363V31.5763L377.461 35.443L378.664 39.5244V54.0889ZM412.236 42.403C413.497 42.403 414.599 42.1165 415.544 41.5437C416.49 40.9709 417.206 40.1689 417.693 39.1378C418.208 38.1067 418.466 36.9323 418.466 35.6148C418.466 34.2686 418.208 33.0943 417.693 32.0919C417.206 31.0607 416.49 30.2588 415.544 29.6859C414.599 29.1131 413.497 28.8267 412.236 28.8267C410.976 28.8267 409.873 29.1131 408.928 29.6859C407.983 30.2588 407.253 31.0607 406.737 32.0919C406.25 33.0943 406.007 34.2686 406.007 35.6148C406.007 36.9323 406.264 38.1067 406.78 39.1378C407.296 40.1689 408.012 40.9709 408.928 41.5437C409.873 42.1165 410.976 42.403 412.236 42.403ZM412.236 47.4726C410.088 47.4726 408.098 46.9427 406.264 45.883C404.46 44.7946 403.028 43.3481 401.968 41.5437C400.908 39.7106 400.379 37.7343 400.379 35.6148C400.379 33.4667 400.908 31.4904 401.968 29.6859C403.057 27.8528 404.503 26.4064 406.307 25.3467C408.141 24.2869 410.117 23.757 412.236 23.757C414.384 23.757 416.361 24.2869 418.165 25.3467C419.998 26.4064 421.445 27.8528 422.504 29.6859C423.564 31.4904 424.094 33.4667 424.094 35.6148C424.094 37.7343 423.564 39.7106 422.504 41.5437C421.445 43.3481 419.998 44.7946 418.165 45.883C416.361 46.9427 414.384 47.4726 412.236 47.4726ZM434.046 44.2933C434.046 45.1812 433.817 45.8543 433.359 46.3126C432.901 46.7709 432.228 47 431.34 47H431.254C430.366 47 429.693 46.7709 429.235 46.3126C428.776 45.8543 428.547 45.1812 428.547 44.2933V26.9363C428.547 26.0484 428.776 25.3753 429.235 24.917C429.693 24.4588 430.366 24.2296 431.254 24.2296H431.34C432.228 24.2296 432.901 24.4588 433.359 24.917C433.817 25.3753 434.046 26.0484 434.046 26.9363V44.2933ZM428.547 39.9541C428.547 37.4049 428.934 35.0277 429.707 32.8222C430.509 30.5881 431.64 28.7121 433.101 27.1941C434.591 25.6474 436.309 24.6163 438.257 24.1007C439.116 23.9002 439.803 24.0291 440.319 24.4874C440.835 24.917 441.092 25.5615 441.092 26.4207V26.5067C441.092 27.3373 440.892 27.9817 440.491 28.44C440.09 28.8696 439.474 29.156 438.643 29.2993C437.584 29.4998 436.71 29.8578 436.023 30.3733C435.364 30.8889 434.863 31.6193 434.519 32.5644C434.204 33.481 434.046 34.6553 434.046 36.0874L428.547 39.9541ZM456.514 41.5007C457.402 41.6439 458.061 41.9304 458.49 42.36C458.92 42.7896 459.135 43.4054 459.135 44.2074V44.2933C459.135 45.1526 458.891 45.8257 458.404 46.3126C457.917 46.7709 457.244 46.957 456.385 46.8711C453.406 46.5274 451.215 45.5965 449.812 44.0785C448.408 42.5319 447.707 40.4553 447.707 37.8489V19.6756C447.707 18.7876 447.936 18.1146 448.394 17.6563C448.852 17.198 449.525 16.9689 450.413 16.9689H450.499C451.387 16.9689 452.06 17.198 452.518 17.6563C452.977 18.1146 453.206 18.7876 453.206 19.6756V36.9896C453.206 37.9635 453.292 38.7511 453.464 39.3526C453.664 39.9541 453.994 40.4267 454.452 40.7704C454.939 41.1141 455.626 41.3575 456.514 41.5007ZM456.6 24.2296C457.431 24.2296 458.061 24.4444 458.49 24.8741C458.92 25.3037 459.135 25.9338 459.135 26.7644V26.8074C459.135 27.6094 458.92 28.2395 458.49 28.6978C458.061 29.1274 457.431 29.3422 456.6 29.3422H445.988C445.186 29.3422 444.556 29.1274 444.098 28.6978C443.668 28.2395 443.453 27.6094 443.453 26.8074V26.7644C443.453 25.9338 443.668 25.3037 444.098 24.8741C444.556 24.4444 445.186 24.2296 445.988 24.2296H456.6ZM484.248 44.1644C484.248 45.081 484.005 45.7827 483.518 46.2696C483.031 46.7565 482.329 47 481.412 47H481.326C480.41 47 479.708 46.7565 479.221 46.2696C478.734 45.7827 478.491 45.081 478.491 44.1644V19.7615C478.491 18.2721 478.878 17.1407 479.651 16.3674C480.453 15.5654 481.599 15.1644 483.088 15.1644H484.248V44.1644ZM483.389 28.9985H489.146C490.12 28.9985 490.95 28.8123 491.638 28.44C492.325 28.0677 492.841 27.5664 493.184 26.9363C493.528 26.3062 493.7 25.6044 493.7 24.8311C493.7 24.0578 493.528 23.3704 493.184 22.7689C492.841 22.1388 492.325 21.6518 491.638 21.3081C490.95 20.9358 490.12 20.7496 489.146 20.7496H483.389V15.1644H489.146C491.093 15.1644 492.855 15.637 494.43 16.5822C496.005 17.4988 497.237 18.7017 498.125 20.1911C499.013 21.6805 499.457 23.2272 499.457 24.8311C499.457 26.4064 499.013 27.9531 498.125 29.4711C497.237 30.9605 496.005 32.1921 494.43 33.1659C492.855 34.1111 491.093 34.5837 489.146 34.5837H483.389V28.9985ZM509.274 44.2933C509.274 45.1812 509.044 45.8543 508.586 46.3126C508.128 46.7709 507.455 47 506.567 47H506.481C505.593 47 504.92 46.7709 504.462 46.3126C504.003 45.8543 503.774 45.1812 503.774 44.2933V26.9363C503.774 26.0484 504.003 25.3753 504.462 24.917C504.92 24.4588 505.593 24.2296 506.481 24.2296H506.567C507.455 24.2296 508.128 24.4588 508.586 24.917C509.044 25.3753 509.274 26.0484 509.274 26.9363V44.2933ZM503.774 39.9541C503.774 37.4049 504.161 35.0277 504.934 32.8222C505.736 30.5881 506.868 28.7121 508.328 27.1941C509.818 25.6474 511.536 24.6163 513.484 24.1007C514.343 23.9002 515.031 24.0291 515.546 24.4874C516.062 24.917 516.319 25.5615 516.319 26.4207V26.5067C516.319 27.3373 516.119 27.9817 515.718 28.44C515.317 28.8696 514.701 29.156 513.871 29.2993C512.811 29.4998 511.937 29.8578 511.25 30.3733C510.591 30.8889 510.09 31.6193 509.746 32.5644C509.431 33.481 509.274 34.6553 509.274 36.0874L503.774 39.9541ZM541.342 32.9511C541.6 34.2114 541.371 35.2138 540.655 35.9585C539.967 36.6746 538.965 37.0326 537.647 37.0326H536.659C536.659 35.0849 536.387 33.4953 535.843 32.2637C535.327 31.0035 534.597 30.1012 533.652 29.557C532.735 28.9842 531.647 28.6978 530.387 28.6978C528.926 28.6978 527.694 28.9699 526.692 29.5141C525.718 30.0296 524.973 30.803 524.458 31.8341C523.942 32.8652 523.684 34.1111 523.684 35.5719C523.684 37.0899 523.942 38.3644 524.458 39.3956C524.973 40.4267 525.761 41.2143 526.821 41.7585C527.88 42.2741 529.212 42.5319 530.816 42.5319C531.561 42.5319 532.277 42.403 532.964 42.1452C533.652 41.8588 534.282 41.4578 534.855 40.9422C535.513 40.398 536.115 40.083 536.659 39.997C537.232 39.9111 537.833 40.083 538.464 40.5126L538.592 40.5985C539.337 41.1141 539.752 41.7012 539.838 42.36C539.924 42.9901 539.652 43.6059 539.022 44.2074C537.848 45.2385 536.545 46.0405 535.112 46.6133C533.709 47.1862 532.277 47.4726 530.816 47.4726C528.324 47.4726 526.147 46.957 524.286 45.9259C522.424 44.8948 520.978 43.477 519.947 41.6726C518.944 39.8681 518.443 37.8346 518.443 35.5719C518.443 33.3091 518.944 31.2899 519.947 29.5141C520.978 27.7096 522.395 26.3062 524.2 25.3037C526.033 24.2726 528.095 23.757 530.387 23.757C532.105 23.757 533.709 24.1007 535.198 24.7881C536.716 25.4756 538.02 26.5067 539.108 27.8815C540.196 29.2563 540.941 30.9462 541.342 32.9511ZM537.304 37.0326H522.009V32.5644H537.304V37.0326ZM559.065 26.3778C559.58 24.9457 560.597 24.2296 562.115 24.2296H562.33C563.304 24.2296 564.006 24.5304 564.435 25.1318C564.865 25.7047 564.894 26.4494 564.521 27.3659L557.389 45.0667C556.902 46.3556 555.943 47 554.511 47H554.339C552.907 47 551.947 46.3556 551.46 45.0667L544.329 27.3659C543.956 26.4494 543.985 25.7047 544.415 25.1318C544.844 24.5304 545.546 24.2296 546.52 24.2296H546.735C548.253 24.2296 549.269 24.9457 549.785 26.3778L554.425 39.0519L559.065 26.3778ZM574.56 17.2267C574.56 18.1146 574.331 18.7876 573.873 19.2459C573.414 19.7042 572.741 19.9333 571.853 19.9333H571.768C570.908 19.9333 570.235 19.7042 569.748 19.2459C569.29 18.7876 569.061 18.1146 569.061 17.2267V17.1407C569.061 16.2528 569.29 15.5797 569.748 15.1215C570.235 14.6632 570.908 14.4341 571.768 14.4341H571.853C572.741 14.4341 573.414 14.6632 573.873 15.1215C574.331 15.5797 574.56 16.2528 574.56 17.1407V17.2267ZM574.56 44.2933C574.56 45.1812 574.331 45.8543 573.873 46.3126C573.414 46.7709 572.741 47 571.853 47H571.768C570.908 47 570.235 46.7709 569.748 46.3126C569.29 45.8543 569.061 45.1812 569.061 44.2933V26.9363C569.061 26.0484 569.29 25.3753 569.748 24.917C570.235 24.4588 570.908 24.2296 571.768 24.2296H571.853C572.741 24.2296 573.414 24.4588 573.873 24.917C574.331 25.3753 574.56 26.0484 574.56 26.9363V44.2933ZM602.052 32.9511C602.31 34.2114 602.081 35.2138 601.365 35.9585C600.678 36.6746 599.675 37.0326 598.358 37.0326H597.369C597.369 35.0849 597.097 33.4953 596.553 32.2637C596.038 31.0035 595.307 30.1012 594.362 29.557C593.446 28.9842 592.357 28.6978 591.097 28.6978C589.636 28.6978 588.405 28.9699 587.402 29.5141C586.428 30.0296 585.684 30.803 585.168 31.8341C584.652 32.8652 584.395 34.1111 584.395 35.5719C584.395 37.0899 584.652 38.3644 585.168 39.3956C585.684 40.4267 586.471 41.2143 587.531 41.7585C588.591 42.2741 589.923 42.5319 591.526 42.5319C592.271 42.5319 592.987 42.403 593.675 42.1452C594.362 41.8588 594.992 41.4578 595.565 40.9422C596.224 40.398 596.825 40.083 597.369 39.997C597.942 39.9111 598.544 40.083 599.174 40.5126L599.303 40.5985C600.047 41.1141 600.463 41.7012 600.549 42.36C600.635 42.9901 600.363 43.6059 599.732 44.2074C598.558 45.2385 597.255 46.0405 595.823 46.6133C594.419 47.1862 592.987 47.4726 591.526 47.4726C589.035 47.4726 586.858 46.957 584.996 45.9259C583.134 44.8948 581.688 43.477 580.657 41.6726C579.654 39.8681 579.153 37.8346 579.153 35.5719C579.153 33.3091 579.654 31.2899 580.657 29.5141C581.688 27.7096 583.106 26.3062 584.91 25.3037C586.743 24.2726 588.806 23.757 591.097 23.757C592.815 23.757 594.419 24.1007 595.909 24.7881C597.427 25.4756 598.73 26.5067 599.818 27.8815C600.907 29.2563 601.651 30.9462 602.052 32.9511ZM598.014 37.0326H582.719V32.5644H598.014V37.0326ZM632.449 26.4207C632.736 25.676 633.108 25.1318 633.566 24.7881C634.053 24.4158 634.683 24.2296 635.457 24.2296H635.543C636.517 24.2296 637.233 24.5304 637.691 25.1318C638.149 25.7333 638.206 26.4923 637.863 27.4089L630.946 45.0237C630.459 46.3412 629.485 47 628.024 47H627.895C627.151 47 626.549 46.8281 626.091 46.4844C625.633 46.1407 625.289 45.6109 625.06 44.8948L621.193 32.5215L617.326 44.8948C617.097 45.6109 616.754 46.1407 616.295 46.4844C615.837 46.8281 615.236 47 614.491 47H614.362C612.901 47 611.927 46.3412 611.44 45.0237L604.523 27.4089C604.18 26.4923 604.237 25.7333 604.695 25.1318C605.154 24.5304 605.87 24.2296 606.843 24.2296H606.929C607.703 24.2296 608.319 24.4158 608.777 24.7881C609.264 25.1318 609.65 25.676 609.937 26.4207L614.577 38.7941L618.83 25.8622C619.202 24.7738 619.976 24.2296 621.15 24.2296H621.236C622.41 24.2296 623.184 24.7738 623.556 25.8622L627.809 38.7941L632.449 26.4207Z" fill="black"/>
<defs>
<clipPath id="clip0_374_7468">
<rect width="64" height="64" rx="20" fill="white"/>
</clipPath>
</defs>
</svg>
