<svg width="576" height="64" viewBox="0 0 576 64" fill="none" xmlns="http://www.w3.org/2000/svg">
<g clip-path="url(#clip0_346_652)">
<path d="M52 0H12C5.37258 0 0 5.37258 0 12V52C0 58.6274 5.37258 64 12 64H52C58.6274 64 64 58.6274 64 52V12C64 5.37258 58.6274 0 52 0Z" fill="#583EF5"/>
<path d="M24.5 47.9999V40L20.629 44.9522L16.5 40V48" stroke="white" stroke-width="3" stroke-linecap="round" stroke-linejoin="round"/>
<path d="M29.5 48V40H31C32.0001 40 35.5 40.0001 35.5 44C35.5 47.9999 32.0003 48 31.0001 48H29.5Z" stroke="white" stroke-width="3" stroke-linecap="round" stroke-linejoin="round"/>
<path d="M15.0001 33.4616C15.0001 34.29 15.6716 34.9616 16.5001 34.9616C17.3285 34.9616 18.0001 34.29 18.0001 33.4616H15.0001ZM40.6667 46.5001C39.8384 46.5001 39.1667 47.1716 39.1667 48.0001C39.1667 48.8285 39.8384 49.5001 40.6667 49.5001V46.5001ZM47.0001 39.1112C47.0001 39.9396 47.6716 40.6112 48.5001 40.6112C49.3285 40.6112 50.0001 39.9396 50.0001 39.1112H47.0001ZM25.8334 17.5001H27.5477V14.5001H25.8334V17.5001ZM47.0001 36.9524V38.6667H50.0001V36.9524H47.0001ZM18.0001 33.4616V25.3334H15.0001V33.4616H18.0001ZM40.881 30.8334C41.373 30.8334 41.557 30.834 41.7036 30.8422L41.8718 27.8469C41.6199 27.8328 41.3323 27.8334 40.881 27.8334V30.8334ZM50.0001 36.9524C50.0001 36.5012 50.0006 36.2136 49.9865 35.9617L46.9913 36.1299C46.9995 36.2765 47.0001 36.4604 47.0001 36.9524H50.0001ZM41.7036 30.8422C44.5549 31.0024 46.8311 33.2786 46.9913 36.1299L49.9865 35.9617C49.7407 31.5859 46.2476 28.0926 41.8718 27.8469L41.7036 30.8422ZM27.5477 17.5001C28.0397 17.5001 28.2236 17.5006 28.3702 17.5089L28.5385 14.5137C28.2866 14.4995 27.9989 14.5001 27.5477 14.5001V17.5001ZM36.6667 23.6192C36.6667 23.1678 36.6674 22.8802 36.6532 22.6284L33.6579 22.7965C33.6661 22.9432 33.6667 23.1272 33.6667 23.6192H36.6667ZM28.3702 17.5089C31.2216 17.669 33.4978 19.9452 33.6579 22.7965L36.6532 22.6284C36.4075 18.2526 32.9142 14.7594 28.5385 14.5137L28.3702 17.5089ZM47.0001 38.6667C47.0001 40.8233 46.9888 41.6262 46.832 42.2523L49.742 42.9813C50.0114 41.9058 50.0001 40.6426 50.0001 38.6667H47.0001ZM40.6667 49.5001C41.6409 49.5001 42.1564 49.5026 42.5078 49.4649C42.7394 49.44 42.9099 49.399 43.0661 49.3557C43.2116 49.3154 43.292 49.2894 43.4813 49.242L42.7523 46.332C42.5163 46.391 42.336 46.445 42.2651 46.4646C42.2051 46.4812 42.2036 46.4803 42.1873 46.482C42.0429 46.4976 41.7588 46.5001 40.6667 46.5001V49.5001ZM46.832 42.2523C46.3289 44.2608 44.7608 45.8289 42.7523 46.332L43.4813 49.242C46.5634 48.47 48.97 46.0634 49.742 42.9813L46.832 42.2523ZM33.6667 23.6192C33.6667 23.9525 33.6661 24.1812 33.6774 24.3833L36.6728 24.215C36.6674 24.1182 36.6667 23.9932 36.6667 23.6192H33.6667ZM40.881 27.8334C40.5069 27.8334 40.3819 27.8328 40.2851 27.8274L40.1169 30.8227C40.3189 30.834 40.5476 30.8334 40.881 30.8334V27.8334ZM33.6774 24.3833C33.8725 27.8556 36.6445 30.6276 40.1169 30.8227L40.2851 27.8274C38.3372 27.718 36.7821 26.1629 36.6728 24.215L33.6774 24.3833ZM25.8334 14.5001C23.8576 14.5001 22.5944 14.4888 21.5188 14.7581L22.2478 17.6682C22.8739 17.5114 23.6769 17.5001 25.8334 17.5001V14.5001ZM18.0001 25.3334C18.0001 23.1769 18.0114 22.3739 18.1682 21.7478L15.2581 21.0188C14.9888 22.0944 15.0001 23.3576 15.0001 25.3334H18.0001ZM21.5188 14.7581C18.4368 15.5301 16.0301 17.9368 15.2581 21.0188L18.1682 21.7478C18.6713 19.7394 20.2394 18.1713 22.2478 17.6682L21.5188 14.7581ZM25.8334 17.5001H30.7222V14.5001H25.8334V17.5001ZM47.0001 33.7779V39.1112H50.0001V33.7779H47.0001ZM30.7222 17.5001C39.7123 17.5001 47.0001 24.7878 47.0001 33.7779H50.0001C50.0001 23.131 41.3691 14.5001 30.7222 14.5001V17.5001Z" fill="white"/>
</g>
<path d="M117.807 44.1644C117.807 45.081 117.564 45.7827 117.077 46.2696C116.59 46.7565 115.888 47 114.972 47H114.886C113.969 47 113.268 46.7565 112.781 46.2696C112.294 45.7827 112.05 45.081 112.05 44.1644V27.7526L103.458 45.2385C103.171 45.84 102.799 46.284 102.341 46.5704C101.882 46.8568 101.31 47 100.622 47H100.45C99.763 47 99.1901 46.8568 98.7319 46.5704C98.2736 46.284 97.9012 45.84 97.6148 45.2385L89.0222 27.7526V44.1644C89.0222 45.081 88.7788 45.7827 88.2919 46.2696C87.8049 46.7565 87.1032 47 86.1867 47H86.1007C85.1842 47 84.4825 46.7565 83.9956 46.2696C83.5086 45.7827 83.2652 45.081 83.2652 44.1644V18C83.2652 17.0835 83.4943 16.3817 83.9526 15.8948C84.4109 15.4079 85.0696 15.1644 85.9289 15.1644H86.2726C87.8479 15.1644 88.9649 15.8518 89.6237 17.2267L100.536 39.4385L111.449 17.2267C112.108 15.8518 113.225 15.1644 114.8 15.1644H114.972C115.888 15.1644 116.59 15.4079 117.077 15.8948C117.564 16.3817 117.807 17.0835 117.807 18V44.1644ZM146.509 44.2504C146.509 45.1383 146.266 45.8257 145.779 46.3126C145.32 46.7709 144.647 47 143.759 47H143.631C142.743 47 142.055 46.7709 141.568 46.3126C141.11 45.8257 140.881 45.1383 140.881 44.2504V39.6533L142.084 35.7867L140.881 31.7052V26.9793C140.881 26.0914 141.11 25.4183 141.568 24.96C142.055 24.4731 142.743 24.2296 143.631 24.2296H143.759C144.647 24.2296 145.32 24.4731 145.779 24.96C146.266 25.4183 146.509 26.0914 146.509 26.9793V44.2504ZM134.694 42.5319C136.04 42.5319 137.215 42.2454 138.217 41.6726C139.22 41.0998 139.993 40.2978 140.537 39.2667C141.081 38.2069 141.353 36.9896 141.353 35.6148C141.353 34.24 141.081 33.0227 140.537 31.963C139.993 30.9032 139.22 30.0869 138.217 29.5141C137.215 28.9412 136.04 28.6548 134.694 28.6548C133.634 28.6548 132.646 28.9556 131.73 29.557C130.842 30.1299 130.14 30.9462 129.625 32.0059C129.109 33.0657 128.851 34.2686 128.851 35.6148C128.851 36.961 129.109 38.1639 129.625 39.2237C130.14 40.2548 130.842 41.0711 131.73 41.6726C132.618 42.2454 133.606 42.5319 134.694 42.5319ZM134.265 47.4726C132.116 47.4726 130.183 46.9427 128.465 45.883C126.746 44.8232 125.4 43.3911 124.426 41.5867C123.452 39.7536 122.965 37.763 122.965 35.6148C122.965 33.4667 123.452 31.4904 124.426 29.6859C125.4 27.8528 126.746 26.4064 128.465 25.3467C130.183 24.2869 132.116 23.757 134.265 23.757C136.384 23.757 138.189 24.3728 139.678 25.6044C141.196 26.8074 142.327 28.3254 143.072 30.1585C143.817 31.9916 144.189 33.8104 144.189 35.6148C144.189 37.4193 143.817 39.238 143.072 41.0711C142.327 42.9042 141.196 44.4365 139.678 45.6681C138.189 46.8711 136.384 47.4726 134.265 47.4726ZM157.179 44.2933C157.179 45.1812 156.949 45.8543 156.491 46.3126C156.033 46.7709 155.36 47 154.472 47H154.386C153.498 47 152.825 46.7709 152.367 46.3126C151.908 45.8543 151.679 45.1812 151.679 44.2933V26.9363C151.679 26.0484 151.908 25.3753 152.367 24.917C152.825 24.4588 153.498 24.2296 154.386 24.2296H154.472C155.36 24.2296 156.033 24.4588 156.491 24.917C156.949 25.3753 157.179 26.0484 157.179 26.9363V44.2933ZM151.679 39.9541C151.679 37.4049 152.066 35.0277 152.839 32.8222C153.641 30.5881 154.773 28.7121 156.233 27.1941C157.723 25.6474 159.441 24.6163 161.389 24.1007C162.248 23.9002 162.936 24.0291 163.451 24.4874C163.967 24.917 164.225 25.5615 164.225 26.4207V26.5067C164.225 27.3373 164.024 27.9817 163.623 28.44C163.222 28.8696 162.606 29.156 161.776 29.2993C160.716 29.4998 159.842 29.8578 159.155 30.3733C158.496 30.8889 157.995 31.6193 157.651 32.5644C157.336 33.481 157.179 34.6553 157.179 36.0874L151.679 39.9541ZM169.249 34.197L178.658 25.6474C179.202 25.1318 179.746 24.7738 180.291 24.5733C180.864 24.3442 181.522 24.2296 182.267 24.2296H182.697C183.556 24.2296 184.215 24.4015 184.673 24.7452C185.131 25.0889 185.303 25.5472 185.188 26.12C185.074 26.6928 184.687 27.2657 184.028 27.8385L172.6 37.8059L169.249 34.197ZM186.048 43.3911C186.678 43.964 187.022 44.5368 187.079 45.1096C187.136 45.6538 186.95 46.1121 186.52 46.4844C186.119 46.8281 185.589 47 184.931 47H184.329C183.613 47 182.969 46.8998 182.396 46.6993C181.852 46.4701 181.293 46.1121 180.72 45.6252L169.722 36.0015L173.073 31.963L186.048 43.3911ZM173.374 44.2933C173.374 45.1812 173.144 45.8543 172.686 46.3126C172.228 46.7709 171.555 47 170.667 47H170.581C169.693 47 169.02 46.7709 168.562 46.3126C168.104 45.8543 167.874 45.1812 167.874 44.2933V17.1407C167.874 16.2528 168.104 15.5797 168.562 15.1215C169.02 14.6632 169.693 14.4341 170.581 14.4341H170.667C171.555 14.4341 172.228 14.6632 172.686 15.1215C173.144 15.5797 173.374 16.2528 173.374 17.1407V44.2933ZM200.02 42.5319C201.366 42.5319 202.54 42.2454 203.543 41.6726C204.545 41.0998 205.319 40.2978 205.863 39.2667C206.407 38.2069 206.679 36.9896 206.679 35.6148C206.679 34.24 206.407 33.0227 205.863 31.963C205.319 30.9032 204.545 30.0869 203.543 29.5141C202.54 28.9412 201.366 28.6548 200.02 28.6548C198.96 28.6548 197.972 28.9556 197.055 29.557C196.167 30.1299 195.466 30.9462 194.95 32.0059C194.435 33.0657 194.177 34.2686 194.177 35.6148C194.177 36.961 194.435 38.1639 194.95 39.2237C195.466 40.2548 196.167 41.0711 197.055 41.6726C197.943 42.2454 198.931 42.5319 200.02 42.5319ZM199.59 47.4726C197.442 47.4726 195.509 46.9427 193.79 45.883C192.072 44.8232 190.725 43.3911 189.752 41.5867C188.778 39.7536 188.291 37.763 188.291 35.6148C188.291 33.4667 188.778 31.4904 189.752 29.6859C190.725 27.8528 192.072 26.4064 193.79 25.3467C195.509 24.2869 197.442 23.757 199.59 23.757C201.71 23.757 203.514 24.3728 205.003 25.6044C206.521 26.8074 207.653 28.3254 208.398 30.1585C209.142 31.9916 209.515 33.8104 209.515 35.6148C209.515 37.4193 209.142 39.238 208.398 41.0711C207.653 42.9042 206.521 44.4365 205.003 45.6681C203.514 46.8711 201.71 47.4726 199.59 47.4726ZM211.706 44.2933C211.706 45.1526 211.477 45.8257 211.018 46.3126C210.56 46.7709 209.887 47 208.999 47H208.913C208.054 47 207.381 46.7709 206.894 46.3126C206.436 45.8257 206.206 45.1526 206.206 44.2933V39.6533L207.409 35.7867L206.206 31.7052V17.1407C206.206 16.2528 206.436 15.5797 206.894 15.1215C207.381 14.6632 208.054 14.4341 208.913 14.4341H208.999C209.887 14.4341 210.56 14.6632 211.018 15.1215C211.477 15.5797 211.706 16.2528 211.706 17.1407V44.2933ZM228.049 42.403C229.31 42.403 230.412 42.1165 231.358 41.5437C232.303 40.9709 233.019 40.1689 233.506 39.1378C234.021 38.1067 234.279 36.9323 234.279 35.6148C234.279 34.2686 234.021 33.0943 233.506 32.0919C233.019 31.0607 232.303 30.2588 231.358 29.6859C230.412 29.1131 229.31 28.8267 228.049 28.8267C226.789 28.8267 225.686 29.1131 224.741 29.6859C223.796 30.2588 223.066 31.0607 222.55 32.0919C222.063 33.0943 221.82 34.2686 221.82 35.6148C221.82 36.9323 222.078 38.1067 222.593 39.1378C223.109 40.1689 223.825 40.9709 224.741 41.5437C225.686 42.1165 226.789 42.403 228.049 42.403ZM228.049 47.4726C225.901 47.4726 223.911 46.9427 222.078 45.883C220.273 44.7946 218.841 43.3481 217.781 41.5437C216.721 39.7106 216.192 37.7343 216.192 35.6148C216.192 33.4667 216.721 31.4904 217.781 29.6859C218.87 27.8528 220.316 26.4064 222.12 25.3467C223.954 24.2869 225.93 23.757 228.049 23.757C230.198 23.757 232.174 24.2869 233.978 25.3467C235.811 26.4064 237.258 27.8528 238.318 29.6859C239.377 31.4904 239.907 33.4667 239.907 35.6148C239.907 37.7343 239.377 39.7106 238.318 41.5437C237.258 43.3481 235.811 44.7946 233.978 45.883C232.174 46.9427 230.198 47.4726 228.049 47.4726ZM270.201 26.4207C270.488 25.676 270.86 25.1318 271.318 24.7881C271.805 24.4158 272.435 24.2296 273.208 24.2296H273.294C274.268 24.2296 274.984 24.5304 275.443 25.1318C275.901 25.7333 275.958 26.4923 275.614 27.4089L268.697 45.0237C268.21 46.3412 267.237 47 265.776 47H265.647C264.902 47 264.301 46.8281 263.843 46.4844C263.384 46.1407 263.041 45.6109 262.811 44.8948L258.945 32.5215L255.078 44.8948C254.849 45.6109 254.505 46.1407 254.047 46.4844C253.589 46.8281 252.987 47 252.243 47H252.114C250.653 47 249.679 46.3412 249.192 45.0237L242.275 27.4089C241.931 26.4923 241.989 25.7333 242.447 25.1318C242.905 24.5304 243.621 24.2296 244.595 24.2296H244.681C245.454 24.2296 246.07 24.4158 246.528 24.7881C247.015 25.1318 247.402 25.676 247.688 26.4207L252.328 38.7941L256.582 25.8622C256.954 24.7738 257.727 24.2296 258.902 24.2296H258.988C260.162 24.2296 260.935 24.7738 261.308 25.8622L265.561 38.7941L270.201 26.4207ZM285.019 44.2933C285.019 45.1812 284.789 45.8543 284.331 46.3126C283.873 46.7709 283.2 47 282.312 47H282.226C281.367 47 280.694 46.7709 280.207 46.3126C279.748 45.8543 279.519 45.1812 279.519 44.2933V26.9363C279.519 26.0484 279.748 25.3753 280.207 24.917C280.694 24.4588 281.367 24.2296 282.226 24.2296H282.312C283.2 24.2296 283.873 24.4588 284.331 24.917C284.789 25.3753 285.019 26.0484 285.019 26.9363V44.2933ZM279.519 39.9541C279.519 37.0899 280.049 34.4119 281.109 31.92C282.169 29.4281 283.629 27.4518 285.491 25.9911C287.353 24.5017 289.429 23.757 291.721 23.757C293.182 23.757 294.542 24.1723 295.802 25.003C297.091 25.8336 298.122 27.0509 298.896 28.6548C299.698 30.2301 300.099 32.0775 300.099 34.197V44.2933C300.099 45.1812 299.869 45.8543 299.411 46.3126C298.953 46.7709 298.28 47 297.392 47H297.306C296.447 47 295.774 46.7709 295.287 46.3126C294.828 45.8543 294.599 45.1812 294.599 44.2933V34.197C294.599 33.0227 294.385 32.0632 293.955 31.3185C293.525 30.5452 292.981 29.9867 292.322 29.643C291.664 29.2706 290.976 29.0844 290.26 29.0844C289.229 29.0844 288.327 29.2993 287.553 29.7289C286.78 30.1585 286.164 30.8889 285.706 31.92C285.248 32.9511 285.019 34.3402 285.019 36.0874L279.519 39.9541ZM352.233 12.7156C353.694 12.7156 354.811 13.1022 355.584 13.8756C356.358 14.6202 356.744 15.7373 356.744 17.2267V20.9215C356.744 22.3822 356.358 23.4993 355.584 24.2726C354.84 25.0459 353.723 25.4326 352.233 25.4326H349.484C347.88 25.4326 347.078 24.6306 347.078 23.0267V22.8548C347.078 21.2509 347.88 20.4489 349.484 20.4489H351.675V17.6993H338.829V49.277C338.829 50.9096 338.012 51.7259 336.38 51.7259H336.208C334.575 51.7259 333.759 50.9096 333.759 49.277V17.2267C333.759 15.7659 334.131 14.6489 334.876 13.8756C335.649 13.1022 336.781 12.7156 338.27 12.7156H352.233ZM351.804 27.1081C353.723 27.1081 355.14 27.6094 356.057 28.6118C356.973 29.5857 357.288 31.0178 357.002 32.9081C356.429 35.801 355.455 38.479 354.081 40.9422C352.706 43.3768 351.087 45.4677 349.226 47.2148C347.364 48.9906 345.402 50.3511 343.34 51.2963C341.936 52.0696 340.877 51.7259 340.161 50.2652L340.075 50.0933C339.387 48.6899 339.76 47.6015 341.192 46.8281C344.17 45.081 346.576 42.9901 348.409 40.5556C350.271 38.121 351.531 35.2854 352.19 32.0489H338.743C337.139 32.0489 336.337 31.2469 336.337 29.643V29.5141C336.337 27.9101 337.139 27.1081 338.743 27.1081H351.804ZM342.566 33.3807C344.027 32.8652 345.058 33.3521 345.66 34.8415C346.834 37.6198 348.295 39.9827 350.042 41.9304C351.818 43.8494 353.909 45.5249 356.315 46.957C357.031 47.358 357.475 47.8163 357.646 48.3319C357.818 48.876 357.718 49.5062 357.346 50.2222L357.26 50.3941C356.515 51.8262 355.455 52.1412 354.081 51.3393C350.844 49.4489 348.094 47.2435 345.832 44.723C343.569 42.2025 341.951 39.4528 340.977 36.4741C340.433 34.9847 340.905 33.9822 342.395 33.4667L342.566 33.3807ZM329.806 18.8593C331.41 18.8593 332.212 19.6612 332.212 21.2652V21.48C332.212 23.0839 331.41 23.8859 329.806 23.8859H321.558C319.925 23.8859 319.109 23.0696 319.109 21.437V21.3081C319.109 19.6756 319.925 18.8593 321.558 18.8593H329.806ZM329.806 31.0178C331.41 31.0178 332.212 31.8198 332.212 33.4237V33.6385C332.212 35.2425 331.41 36.0444 329.806 36.0444H321.558C319.925 36.0444 319.109 35.2281 319.109 33.5956V33.4667C319.109 31.8341 319.925 31.0178 321.558 31.0178H329.806ZM326.069 12.1141C327.701 12.1141 328.518 12.9304 328.518 14.563V46.6133C328.518 48.1314 328.131 49.277 327.358 50.0504C326.584 50.8523 325.424 51.2533 323.878 51.2533H322.116C320.426 51.2533 319.581 50.4084 319.581 48.7185V48.5467C319.581 46.8568 320.426 46.0119 322.116 46.0119H323.448V14.563C323.448 12.9304 324.264 12.1141 325.897 12.1141H326.069ZM365.38 39.2237C365.38 36.1877 366.898 34.6696 369.934 34.6696H393.478C396.514 34.6696 398.032 36.1877 398.032 39.2237V46.5274C398.032 49.5635 396.514 51.0815 393.478 51.0815H369.934C366.898 51.0815 365.38 49.5635 365.38 46.5274V39.2237ZM392.876 39.6533H370.535V46.0978H392.876V39.6533ZM398.547 26.3778C400.18 26.3778 400.996 27.1798 400.996 28.7837V28.9985C400.996 30.6025 400.194 31.4044 398.59 31.4044H364.864C363.232 31.4044 362.415 30.5881 362.415 28.9556V28.8267C362.415 27.1941 363.232 26.3778 364.864 26.3778H398.547ZM381.792 12.3289C383.482 12.3289 384.327 13.1738 384.327 14.8637V26.3778C384.327 28.0677 383.482 28.9126 381.792 28.9126H381.62C379.93 28.9126 379.085 28.0677 379.085 26.3778V14.8637C379.085 13.1738 379.93 12.3289 381.62 12.3289H381.792ZM366.969 13.0593C368.602 13.0593 369.418 13.8756 369.418 15.5081V16.0667H396.915C398.519 16.0667 399.321 16.8686 399.321 18.4726V18.6874C399.321 20.2914 398.519 21.0933 396.915 21.0933H368.903C365.867 21.0933 364.349 19.5753 364.349 16.5393V15.5081C364.349 13.8756 365.165 13.0593 366.798 13.0593H366.969ZM433.82 27.7096C435.367 27.7096 436.14 28.483 436.14 30.0296V33.4237C436.14 36.0588 435.853 38.436 435.281 40.5556C434.708 42.6751 433.734 44.6227 432.359 46.3985C430.984 48.1457 429.123 49.721 426.774 51.1244C425.399 51.8978 424.368 51.5827 423.681 50.1793L423.595 50.0074C422.907 48.6612 423.251 47.6015 424.626 46.8281C426.402 45.7684 427.762 44.6084 428.707 43.3481C429.681 42.0879 430.354 40.6701 430.727 39.0948C431.128 37.5195 431.328 35.6291 431.328 33.4237V30.0296C431.328 28.483 432.101 27.7096 433.648 27.7096H433.82ZM442.327 13.2741C443.816 13.2741 444.561 14.0188 444.561 15.5081V15.68C444.561 17.1694 443.816 17.9141 442.327 17.9141H424.884C423.394 17.9141 422.649 17.1694 422.649 15.68V15.5081C422.649 14.0188 423.394 13.2741 424.884 13.2741H442.327ZM443.444 47C444.618 48.0884 444.675 49.2054 443.615 50.3511L443.529 50.437C442.441 51.6114 441.324 51.6686 440.178 50.6089L436.484 47.2578C435.309 46.1694 435.252 45.0523 436.312 43.9067L436.398 43.8207C437.486 42.6464 438.603 42.5891 439.749 43.6489L443.444 47ZM433.82 15.5941C435.338 15.5941 436.097 16.3531 436.097 17.8711V21.1793C436.097 22.6973 435.338 23.4563 433.82 23.4563H433.648C432.13 23.4563 431.371 22.6973 431.371 21.1793V17.8711C431.371 16.3531 432.13 15.5941 433.648 15.5941H433.82ZM439.534 21.1363C440.909 21.1363 441.954 21.4943 442.67 22.2104C443.415 22.9264 443.787 23.9862 443.787 25.3896V40.5556C443.787 42.1022 443.014 42.8756 441.467 42.8756H441.295C439.749 42.8756 438.975 42.1022 438.975 40.5556V25.7763H428.492V40.5556C428.492 42.1022 427.719 42.8756 426.172 42.8756H426.001C424.454 42.8756 423.681 42.1022 423.681 40.5556V25.3896C423.681 24.0148 424.039 22.9694 424.755 22.2533C425.471 21.5086 426.53 21.1363 427.934 21.1363H439.534ZM409.245 20.9644C410.62 20.9644 411.307 21.6518 411.307 23.0267V26.3348C411.307 27.7096 410.62 28.397 409.245 28.397H409.073C407.698 28.397 407.011 27.7096 407.011 26.3348V23.0267C407.011 21.6518 407.698 20.9644 409.073 20.9644H409.245ZM417.279 25.7763C418.654 25.7763 419.699 26.1343 420.415 26.8504C421.16 27.5664 421.532 28.6262 421.532 30.0296V34.0252C421.532 35.3427 420.874 36.0015 419.556 36.0015H419.384C418.067 36.0015 417.408 35.3427 417.408 34.0252V31.0178H407.011C405.321 31.0178 404.476 30.1728 404.476 28.483V28.3111C404.476 26.6212 405.321 25.7763 407.011 25.7763H417.279ZM412.94 28.397C414.544 28.397 415.346 29.199 415.346 30.803V46.6563C415.346 48.1743 414.959 49.32 414.186 50.0933C413.412 50.8953 412.252 51.2963 410.706 51.2963H408.772C407.083 51.2963 406.238 50.4514 406.238 48.7615V48.5896C406.238 46.8998 407.083 46.0548 408.772 46.0548H410.319V30.8459C410.319 29.2133 411.135 28.397 412.768 28.397H412.94ZM416.205 13.1452C418.41 13.1452 419.871 13.6751 420.587 14.7348C421.303 15.7659 421.246 17.3126 420.415 19.3748L417.322 26.8933C416.721 28.3827 415.675 28.8267 414.186 28.2252L414.014 28.1393C412.525 27.5378 412.081 26.4923 412.682 25.003L415.475 18.2148H407.784C406.152 18.2148 405.335 17.3985 405.335 15.7659V15.5941C405.335 13.9615 406.152 13.1452 407.784 13.1452H416.205ZM452.294 13.2741C453.927 13.2741 454.743 14.0904 454.743 15.723V23.8C454.743 25.4326 453.927 26.2489 452.294 26.2489H452.122C450.489 26.2489 449.673 25.4326 449.673 23.8V15.723C449.673 14.0904 450.489 13.2741 452.122 13.2741H452.294ZM461.746 12.2C463.378 12.2 464.195 13.0163 464.195 14.6489V24.4444C464.195 26.077 463.378 26.8933 461.746 26.8933H461.574C459.941 26.8933 459.125 26.077 459.125 24.4444V14.6489C459.125 13.0163 459.941 12.2 461.574 12.2H461.746ZM480.263 23.0267C481.466 24.1151 481.537 25.2464 480.478 26.4207L480.392 26.5067C479.303 27.7096 478.172 27.7812 476.998 26.7215L474.205 24.2726C473.002 23.1842 472.93 22.0528 473.99 20.8785L474.076 20.7926C475.165 19.5896 476.296 19.518 477.47 20.5778L480.263 23.0267ZM471.026 12.2C472.658 12.2 473.475 12.9733 473.475 14.52H483.786C485.304 14.52 486.063 15.279 486.063 16.797V16.9689C486.063 18.4869 485.304 19.2459 483.786 19.2459H472.83C469.88 19.2459 468.405 17.7709 468.405 14.8207V14.52C468.405 12.9733 469.221 12.2 470.854 12.2H471.026ZM478.63 28.0963C480.091 28.0963 481.194 28.4686 481.938 29.2133C482.712 29.958 483.098 31.0751 483.098 32.5644V40.6844C483.098 42.3457 482.268 43.1763 480.607 43.1763H480.435C478.773 43.1763 477.943 42.3457 477.943 40.6844V32.8222H457.321V40.6844C457.321 42.3457 456.49 43.1763 454.829 43.1763H454.657C452.996 43.1763 452.165 42.3457 452.165 40.6844V32.5644C452.165 31.1037 452.537 30.001 453.282 29.2563C454.027 28.483 455.144 28.0963 456.633 28.0963H478.63ZM464.495 36.9467C464.639 36.116 464.925 35.5002 465.355 35.0993C465.784 34.6983 466.4 34.4978 467.202 34.4978H467.374C469.064 34.4978 469.823 35.3141 469.651 36.9467C469.25 39.4672 468.247 41.7442 466.644 43.7778C465.068 45.8114 462.949 47.5156 460.285 48.8904C457.65 50.2652 454.6 51.239 451.134 51.8119C450.332 51.9264 449.716 51.8119 449.287 51.4681C448.857 51.1531 448.599 50.5946 448.513 49.7926V49.6207C448.341 48.0741 449.043 47.1719 450.618 46.9141C453.683 46.3985 456.275 45.6252 458.395 44.5941C460.514 43.5343 462.075 42.3314 463.078 40.9852C464.109 39.639 464.581 38.2928 464.495 36.9467ZM471.412 40.8133C473.045 40.8133 473.861 41.6296 473.861 43.2622V46.4844H485.075C486.65 46.4844 487.438 47.2721 487.438 48.8474V49.0622C487.438 50.6375 486.65 51.4252 485.075 51.4252H473.303C471.842 51.4252 470.725 51.0385 469.952 50.2652C469.178 49.5205 468.792 48.4035 468.792 46.9141V43.2622C468.792 41.6296 469.608 40.8133 471.241 40.8133H471.412ZM504.236 13.1022C507.272 13.1022 508.79 14.6202 508.79 17.6563V44.1644C508.79 45.7684 507.988 46.5704 506.384 46.5704H506.212C504.609 46.5704 503.807 45.7684 503.807 44.1644V18.2578H497.62V44.1644C497.62 45.7684 496.818 46.5704 495.214 46.5704H495.042C493.438 46.5704 492.636 45.7684 492.636 44.1644V17.6563C492.636 14.6202 494.154 13.1022 497.19 13.1022H504.236ZM503.807 33.8104C505.468 33.8104 506.298 34.641 506.298 36.3022V36.4741C506.298 38.1353 505.468 38.9659 503.807 38.9659H497.663C496.002 38.9659 495.171 38.1353 495.171 36.4741V36.3022C495.171 34.641 496.002 33.8104 497.663 33.8104H503.807ZM503.807 22.7259C505.468 22.7259 506.298 23.5565 506.298 25.2178V25.3896C506.298 27.0509 505.468 27.8815 503.807 27.8815H497.663C496.002 27.8815 495.171 27.0509 495.171 25.3896V25.2178C495.171 23.5565 496.002 22.7259 497.663 22.7259H503.807ZM507.759 43.9926C509.42 43.9926 510.251 44.8232 510.251 46.4844V46.6563C510.251 48.3175 509.42 49.1481 507.759 49.1481H493.066C491.405 49.1481 490.574 48.3175 490.574 46.6563V46.4844C490.574 44.8232 491.405 43.9926 493.066 43.9926H507.759ZM524.729 17.6993C526.276 17.6993 527.45 18.1002 528.252 18.9022C529.054 19.6756 529.455 20.8499 529.455 22.4252V46.5704C529.455 48.117 529.054 49.2914 528.252 50.0933C527.479 50.8953 526.305 51.2963 524.729 51.2963H522.624C520.877 51.2963 520.004 50.4227 520.004 48.6756V48.5037C520.004 46.7565 520.877 45.883 522.624 45.883H524.386V23.1126H514.032C512.285 23.1126 511.411 22.239 511.411 20.4918V20.32C511.411 18.5728 512.285 17.6993 514.032 17.6993H524.729ZM517.168 12.2C518.801 12.2 519.617 13.0163 519.617 14.6489V29.4281C519.617 33.4094 519.288 37.0612 518.629 40.3837C517.97 43.7062 516.867 46.8568 515.321 49.8356C514.547 51.2677 513.445 51.5684 512.012 50.7378L511.841 50.6519C510.466 49.8499 510.165 48.7185 510.938 47.2578C512.227 44.6514 513.144 41.9304 513.688 39.0948C514.261 36.2306 514.547 33.0084 514.547 29.4281V14.6489C514.547 13.0163 515.364 12.2 516.996 12.2H517.168ZM554.073 13.9185C558.627 13.9185 563.153 13.7037 567.649 13.2741C569.282 13.1309 570.184 13.8612 570.356 15.4652V15.637C570.528 17.241 569.798 18.1146 568.165 18.2578C563.21 18.716 558.513 18.9452 554.073 18.9452H539.165C537.561 18.9452 536.759 18.1289 536.759 16.4963V16.3674C536.759 14.7348 537.575 13.9185 539.208 13.9185H554.073ZM567.649 24.0578C569.253 24.0578 570.055 24.8597 570.055 26.4637V26.6785C570.055 28.2825 569.253 29.0844 567.649 29.0844H539.509C537.876 29.0844 537.06 28.2681 537.06 26.6356V26.5067C537.06 24.8741 537.876 24.0578 539.509 24.0578H567.649ZM570.485 34.283C572.089 34.283 572.891 35.0849 572.891 36.6889V36.9037C572.891 38.5077 572.089 39.3096 570.485 39.3096H536.673C535.041 39.3096 534.224 38.4933 534.224 36.8607V36.7319C534.224 35.0993 535.041 34.283 536.673 34.283H570.485ZM554.03 16.5393C555.749 16.5393 556.608 17.3985 556.608 19.117V46.7852C556.608 48.3319 556.207 49.5062 555.405 50.3081C554.632 51.1101 553.457 51.5111 551.882 51.5111H549.089C547.428 51.5111 546.598 50.6805 546.598 49.0193V48.8474C546.598 47.1862 547.428 46.3556 549.089 46.3556H551.281V19.117C551.281 17.3985 552.14 16.5393 553.858 16.5393H554.03Z" fill="black"/>
<defs>
<clipPath id="clip0_346_652">
<rect width="64" height="64" rx="20" fill="white"/>
</clipPath>
</defs>
</svg>
